<svg width="141px" height="24px" viewBox="48 182 141 24" version="1.1" xmlns="http://www.w3.org/2000/svg" xmlns:xlink="http://www.w3.org/1999/xlink">
    <g id="Divider" stroke="none" stroke-width="1" fill="none" fill-rule="evenodd" transform="translate(49.000000, 182.000000)" fill-opacity="0.5">
        <polygon id="Line" fill="#0083D6" points="96 10 96 12.5 140 12.5 140 10"></polygon>
        <polygon id="E" fill="#0083D6" points="54.2166667 23.3333333 54.2166667 0.583333333 67.8416667 0.583333333 67.8416667 3.09895833 57.2010417 3.09895833 57.2010417 10.2552083 67.2479167 10.2552083 67.2479167 12.7864583 57.2010417 12.7864583 57.2010417 20.8177083 68.2947917 20.8177083 68.2947917 23.3333333"></polygon>
        <polygon id="E" fill="#0083D6" transform="translate(78.589063, 11.958333) scale(-1, 1) translate(-78.589063, -11.958333) " points="71.55 23.3333333 71.55 0.583333333 85.175 0.583333333 85.175 3.09895833 74.534375 3.09895833 74.534375 10.2552083 84.58125 10.2552083 84.58125 12.7864583 74.534375 12.7864583 74.534375 20.8177083 85.628125 20.8177083 85.628125 23.3333333"></polygon>
        <polygon id="Line" fill="#0083D6" points="1.50293993e-09 9.99999997 -1.50248525e-09 12.5 43.6 12.5 43.6 10"></polygon>
    </g>
</svg>
