<svg xmlns="http://www.w3.org/2000/svg" width="11" height="25" viewBox="20 12 11 25"><path d="M27.9 33C27 34.2 26.2 34.9 25.5 34.9 25.3 34.9 25.3 34.7 25.3 34.5 25.3 33.9 26.6 28.3 27.3 25.8 27.5 25.1 27.9 23.5 27.9 22.2 27.9 20.3 27.2 20 25.9 20 23.5 20 21.8 20.8 20 23.6L20.7 24.3C21.2 23.2 22.1 22.5 22.6 22.5L22.7 22.5C22.9 22.5 23 22.7 23 23 23 23.5 22.8 24.2 22.6 25 22 27.1 20.7 32.1 20.7 33.4 20.7 35.3 21.6 37 23.9 37 25.6 37 27.3 35.6 28.5 33.6L27.9 33ZM30.4 14.6C30.4 13.1 29.1 12 27.7 12 26.4 12 25.1 13.1 25.1 14.6 25.1 16 26.4 17.1 27.7 17.1 29.1 17.1 30.4 16 30.4 14.6L30.4 14.6Z" fill="#FFF"/></svg>
