<svg width="421px" height="355px" viewBox="121 0 421 355" version="1.1" xmlns="http://www.w3.org/2000/svg" xmlns:xlink="http://www.w3.org/1999/xlink">
    <path d="M541.542903,39.3715342 C520.98211,51.1830535 504.35874,61.3539315 491.672293,69.8844732 C478.985846,78.4150149 466.080861,89.6795357 452.956951,103.678373 C440.270504,117.239747 430.755812,131.129011 424.412589,145.34658 C418.069366,159.56415 413.58543,178.046713 410.960648,200.794824 L442.457875,200.794824 C469.580623,200.794824 490.906658,207.466045 506.436618,220.808688 C521.966579,234.15133 529.731443,253.727536 529.731443,279.537893 C529.731443,297.911367 522.841493,315.081559 509.061387,331.048983 C495.281282,347.016408 476.361261,355 452.300759,355 C414.678883,355 387.77527,342.641836 371.589114,317.925139 C355.402958,293.208441 347.310001,260.72725 347.310001,220.480591 C347.310001,192.045452 353.434401,166.126118 365.683384,142.721811 C377.932367,119.317505 392.805909,98.4289274 410.304456,80.0554529 C428.240467,61.2445147 447.269851,45.2773299 467.39318,32.1534196 C487.51651,19.0295092 504.358609,8.31180989 517.919983,0 L541.542903,39.3715342 Z M315.232902,39.3715342 C294.672109,51.1830535 278.048739,61.3539315 265.362292,69.8844732 C252.675845,78.4150149 239.77086,89.6795357 226.64695,103.678373 C214.397967,116.802284 204.992639,130.582183 198.430684,145.018484 C191.868729,159.454786 187.275429,178.046713 184.650647,200.794824 L216.147874,200.794824 C243.270622,200.794824 264.596657,207.466045 280.126617,220.808688 C295.656578,234.15133 303.421442,253.727536 303.421442,279.537893 C303.421442,297.911367 296.531492,315.081559 282.751386,331.048983 C268.97128,347.016408 250.05126,355 225.990758,355 C188.368882,355 161.465269,342.641836 145.279113,317.925139 C129.092957,293.208441 121,260.72725 121,220.480591 C121,192.045452 127.1244,166.126118 139.373383,142.721811 C151.622366,119.317505 166.495908,98.4289274 183.994455,80.0554529 C201.930466,61.2445147 220.95985,45.2773299 241.083179,32.1534196 C261.206509,19.0295092 278.048607,8.31180989 291.609982,0 L315.232902,39.3715342 Z" id="“" stroke="none" fill="#FFFFFF" fill-rule="evenodd"></path>
</svg>
